<?xml version="1.0" standalone="no"?>
<!DOCTYPE svg PUBLIC "-//W3C//DTD SVG 20010904//EN"
 "http://www.w3.org/TR/2001/REC-SVG-20010904/DTD/svg10.dtd">
<svg version="1.0" xmlns="http://www.w3.org/2000/svg"
 width="740.000000pt" height="740.000000pt" viewBox="0 0 740.000000 740.000000"
 preserveAspectRatio="xMidYMid meet">
<metadata>
Created by potrace 1.14, written by Peter Selinger 2001-2017
</metadata>
<g transform="translate(0.000000,740.000000) scale(0.100000,-0.100000)"
fill="#000000" stroke="none">
<path d="M3630 7162 c0 -4 -21 -8 -48 -8 -26 -1 -65 -5 -87 -9 -22 -4 -46 -8
-52 -8 -7 0 -13 -5 -13 -10 0 -6 -3 -8 -6 -5 -3 4 -20 0 -39 -7 -18 -8 -35
-11 -39 -8 -3 4 -6 2 -6 -4 0 -10 -25 -21 -41 -19 -4 1 -16 -8 -28 -18 -12
-11 -21 -15 -21 -11 0 5 -7 0 -15 -11 -8 -10 -15 -15 -15 -11 0 4 -10 -1 -22
-13 -12 -11 -28 -20 -35 -20 -8 0 -11 -5 -7 -11 4 -7 1 -10 -7 -7 -7 2 -23 -6
-35 -19 -12 -13 -24 -23 -28 -23 -14 0 -106 -66 -106 -76 0 -7 -8 -14 -17 -18
-28 -9 -113 -73 -106 -80 4 -3 -1 -6 -9 -6 -9 0 -18 -3 -20 -8 -1 -4 -28 -25
-58 -47 -30 -22 -60 -44 -66 -50 -6 -5 -22 -17 -34 -25 -13 -8 -32 -23 -42
-32 -10 -10 -18 -15 -18 -11 0 4 -8 -2 -19 -13 -27 -28 -61 -55 -61 -48 0 3
-7 -2 -17 -11 -28 -28 -208 -162 -313 -233 -14 -9 -29 -22 -35 -28 -5 -7 -48
-39 -95 -73 -47 -34 -89 -65 -95 -69 -5 -4 -25 -17 -42 -27 -18 -11 -33 -23
-33 -27 0 -4 -6 -8 -13 -8 -7 0 -21 -11 -31 -25 -10 -14 -23 -25 -27 -25 -8 0
-36 -20 -65 -48 -8 -7 -14 -10 -14 -6 0 4 -14 -7 -30 -25 -17 -17 -32 -31 -35
-31 -8 0 -85 -77 -85 -85 0 -4 -11 -18 -26 -31 -14 -13 -22 -24 -19 -24 3 0
-7 -19 -22 -42 -14 -24 -26 -49 -26 -55 0 -7 -4 -13 -9 -13 -5 0 -6 -4 -3 -10
3 -5 1 -10 -5 -10 -6 0 -9 -4 -5 -9 3 -5 0 -13 -6 -16 -5 -4 -8 -13 -5 -21 3
-8 2 -14 -3 -14 -4 0 -8 -6 -9 -12 0 -7 -3 -24 -7 -38 -19 -74 -25 -180 -10
-180 7 0 7 -3 0 -8 -11 -8 -15 -72 -4 -72 4 0 6 -8 5 -17 -3 -16 16 -95 31
-133 3 -8 5 -18 5 -22 -1 -5 3 -8 9 -8 5 0 7 -4 4 -10 -3 -5 -1 -10 4 -10 6 0
11 -5 11 -10 0 -16 93 -150 132 -190 41 -42 93 -83 168 -133 30 -20 67 -48 82
-62 15 -14 30 -25 32 -25 6 0 35 -23 60 -46 6 -5 19 -13 29 -17 9 -3 17 -11
17 -17 0 -5 5 -10 11 -10 11 0 102 -69 107 -82 2 -5 10 -8 18 -8 8 0 14 -4 14
-10 0 -5 7 -10 15 -10 8 0 15 -4 15 -10 0 -5 6 -10 14 -10 8 0 16 -3 18 -7 5
-13 86 -73 97 -73 6 0 11 -4 11 -10 0 -5 7 -10 16 -10 8 0 12 -4 9 -10 -3 -5
-1 -10 5 -10 6 0 41 -24 78 -53 57 -44 138 -102 201 -142 8 -5 28 -22 44 -37
16 -16 35 -28 43 -28 9 0 13 -4 10 -8 -2 -4 8 -13 23 -20 15 -7 36 -20 47 -30
10 -10 34 -25 52 -32 17 -8 32 -19 32 -23 0 -5 4 -6 9 -3 5 3 14 -1 21 -9 7
-8 20 -15 29 -15 9 0 21 -4 27 -8 10 -9 87 -34 169 -54 58 -14 1015 -20 1015
-6 0 4 3 7 8 6 4 -1 30 2 57 7 28 5 55 10 60 10 6 1 27 9 49 18 21 9 44 17 50
17 7 0 17 5 24 12 7 7 12 9 12 6 0 -4 24 6 53 23 28 16 64 35 80 41 15 7 27
16 27 20 0 4 5 8 10 8 6 0 19 8 30 18 11 9 29 25 40 35 11 9 22 16 24 15 3 -2
16 7 29 19 14 12 36 27 49 34 12 6 27 18 31 26 5 7 12 11 18 8 5 -4 9 -2 9 2
0 5 12 16 28 25 15 9 37 25 49 35 54 46 62 51 67 46 3 -4 6 -1 6 5 0 6 21 25
47 43 45 31 55 39 107 87 14 12 28 22 32 22 4 0 17 11 29 24 13 14 25 23 27
21 2 -3 19 9 37 25 18 17 35 30 37 30 3 0 27 17 52 38 26 20 55 44 66 52 11 8
32 27 48 42 15 14 28 24 28 21 0 -3 8 4 19 15 10 12 23 22 30 22 6 0 11 5 11
10 0 6 5 10 11 10 7 0 22 11 35 26 13 14 24 23 24 19 0 -9 136 135 136 145 0
3 12 23 26 45 39 63 58 102 51 109 -4 3 -2 6 4 6 6 0 14 15 18 33 4 17 10 39
12 47 2 8 5 22 7 30 1 9 5 20 8 25 3 6 4 64 2 130 -4 157 -4 154 -15 160 -5 4
-7 10 -4 15 6 10 -52 154 -64 158 -6 2 -8 9 -5 17 3 7 -4 19 -15 27 -12 8 -18
17 -15 20 9 9 -104 138 -121 138 -3 0 -17 11 -30 24 -14 14 -38 33 -55 42 -16
10 -30 22 -30 26 0 4 -7 8 -15 8 -8 0 -20 9 -27 20 -7 11 -16 20 -20 20 -5 0
-17 8 -27 18 -29 26 -40 34 -117 85 -39 26 -80 57 -92 68 -12 11 -22 17 -22
14 0 -2 -13 9 -29 25 -15 17 -31 30 -35 30 -6 0 -84 57 -96 71 -3 3 -22 15
-42 28 -21 12 -38 27 -38 32 0 5 -4 8 -9 6 -8 -2 -46 25 -100 72 -13 12 -27
21 -30 21 -3 0 -24 16 -46 35 -22 19 -44 35 -49 35 -5 0 -17 10 -27 22 -11 11
-19 18 -19 15 0 -4 -8 1 -18 11 -34 31 -62 52 -72 52 -5 0 -15 9 -23 20 -8 11
-17 17 -20 14 -3 -4 -17 6 -30 20 -13 14 -29 26 -36 26 -6 0 -11 4 -11 8 0 4
-12 15 -27 24 -36 22 -71 49 -91 71 -9 9 -22 17 -29 17 -7 0 -13 6 -13 13 0
12 -24 28 -62 43 -10 3 -18 10 -18 15 0 5 -6 9 -12 9 -11 0 -28 12 -84 59 -7
5 -15 7 -18 4 -3 -4 -6 -1 -6 5 0 7 -7 12 -15 12 -8 0 -15 4 -15 8 0 5 -16 17
-35 28 -19 10 -35 22 -35 27 0 4 -4 6 -9 2 -5 -3 -26 4 -45 16 -20 11 -36 18
-36 14 0 -4 -7 -2 -15 5 -8 7 -15 9 -15 5 0 -4 -6 -3 -12 3 -7 5 -26 12 -43
16 -65 13 -101 19 -125 20 -14 1 -31 6 -38 10 -7 4 -12 3 -12 -3 0 -7 -8 -7
-25 -1 -14 5 -25 6 -25 2z m410 -1194 c0 -5 4 -7 9 -3 5 3 12 1 15 -3 3 -5 26
-15 51 -22 25 -7 45 -16 45 -19 0 -4 16 -13 35 -21 19 -8 35 -17 35 -21 0 -4
8 -10 18 -13 16 -5 62 -48 109 -102 31 -36 104 -174 98 -185 -3 -4 -1 -10 4
-13 4 -3 12 -20 16 -38 4 -18 10 -42 13 -53 6 -21 6 -201 0 -247 -2 -16 -6
-28 -10 -28 -4 0 -5 -7 -2 -15 4 -8 1 -15 -6 -15 -6 0 -8 -5 -5 -10 4 -6 1
-18 -7 -27 -7 -9 -12 -18 -11 -19 5 -8 -48 -113 -69 -139 -44 -53 -142 -145
-155 -145 -7 0 -13 -4 -13 -8 0 -9 -91 -57 -102 -54 -5 1 -8 -3 -8 -10 0 -6
-3 -9 -6 -6 -3 4 -21 0 -40 -8 -19 -8 -34 -11 -34 -8 0 4 -6 2 -12 -3 -7 -6
-21 -9 -30 -8 -10 2 -21 -1 -24 -6 -3 -6 -11 -5 -20 2 -11 9 -14 9 -14 0 0 -8
-5 -9 -19 -2 -10 6 -20 8 -23 6 -9 -9 -93 -10 -107 -1 -7 5 -16 5 -20 0 -8
-12 -82 -14 -75 -3 3 5 -1 6 -8 4 -22 -9 -118 -12 -118 -4 0 4 -16 3 -35 -1
-20 -4 -38 -4 -41 1 -3 5 -9 7 -14 4 -16 -10 -81 -12 -86 -3 -3 5 -11 5 -18
-1 -7 -6 -18 -6 -26 -1 -7 4 -24 4 -36 0 -14 -6 -26 -5 -29 1 -4 5 -11 7 -16
3 -13 -8 -167 -9 -175 -2 -3 4 -18 3 -33 -2 -16 -4 -34 -4 -41 0 -6 4 -27 4
-46 0 -18 -4 -35 -5 -38 -3 -7 8 -112 7 -124 -1 -6 -3 -13 -2 -17 4 -4 6 -12
7 -18 3 -15 -9 -49 -9 -65 0 -6 5 -20 3 -31 -3 -11 -5 -28 -7 -37 -3 -10 4
-30 7 -44 7 -14 0 -34 -3 -44 -7 -9 -4 -26 -2 -36 3 -13 7 -21 7 -25 0 -5 -8
-11 -7 -21 1 -11 9 -17 9 -28 0 -10 -8 -16 -9 -21 -1 -4 7 -12 7 -26 0 -13 -7
-25 -7 -38 0 -14 7 -22 7 -26 0 -5 -8 -11 -7 -21 1 -11 9 -17 9 -28 0 -10 -9
-16 -9 -21 -1 -4 7 -11 8 -18 2 -7 -5 -21 -8 -32 -5 -49 9 -85 10 -85 2 0 -5
-7 -5 -17 0 -21 11 -134 37 -145 33 -5 -1 -8 2 -8 7 0 5 -13 12 -29 16 -15 3
-38 15 -49 25 -12 11 -25 20 -29 20 -23 0 -169 141 -213 206 -29 41 -72 157
-85 224 -13 74 -8 156 16 245 6 22 13 50 16 63 3 12 9 25 14 28 5 3 9 14 9 25
0 10 9 28 20 39 11 11 18 20 14 20 -3 0 8 17 23 38 39 53 125 132 142 132 8 0
12 3 8 6 -3 4 10 15 31 26 20 11 48 26 62 33 14 8 39 19 55 26 28 12 37 15 58
18 4 0 9 2 12 2 77 25 145 26 1063 26 589 0 962 -3 962 -9z"/>
<path d="M3129 3525 c-3 -2 -21 -7 -40 -10 -38 -5 -73 -12 -76 -15 -2 -2 -6
-3 -10 -4 -5 -1 -19 -8 -33 -16 -14 -7 -25 -12 -25 -11 0 6 -61 -24 -77 -37
-10 -9 -18 -11 -18 -6 0 5 -4 4 -8 -1 -4 -6 -27 -24 -52 -40 -25 -17 -51 -36
-58 -42 -7 -7 -17 -13 -21 -13 -4 0 -19 -9 -32 -21 -40 -35 -107 -79 -120 -79
-7 0 -10 -3 -6 -6 3 -4 -17 -22 -46 -42 -29 -19 -73 -53 -98 -74 -25 -21 -50
-38 -56 -38 -6 0 -13 -7 -17 -15 -3 -8 -11 -15 -18 -15 -7 0 -23 -11 -36 -25
-13 -13 -27 -24 -30 -23 -6 2 -61 -43 -114 -94 -10 -10 -23 -18 -29 -18 -5 0
-8 -4 -5 -9 4 -5 -7 -15 -24 -23 -16 -7 -30 -16 -30 -19 0 -8 -104 -79 -116
-79 -5 0 -16 -9 -24 -20 -8 -11 -18 -20 -23 -20 -5 0 -14 -6 -21 -12 -7 -7
-26 -23 -42 -35 -16 -12 -68 -51 -116 -87 -49 -36 -88 -63 -88 -61 0 5 -10 -4
-61 -50 -9 -8 -21 -15 -28 -15 -7 0 -9 -4 -6 -10 3 -5 1 -10 -4 -10 -6 0 -11
-4 -11 -8 0 -7 32 -8 50 -2 13 5 71 2 77 -4 3 -3 12 -1 20 5 7 6 13 8 13 3 0
-5 30 -10 68 -12 61 -2 127 -8 127 -12 0 -1 8 -3 60 -13 31 -6 79 -18 95 -24
21 -8 43 -14 58 -15 6 -1 12 -5 12 -10 0 -4 7 -8 15 -8 14 0 51 -15 155 -64
25 -11 48 -20 53 -18 4 1 7 -2 7 -6 0 -4 16 -14 35 -21 19 -7 49 -24 65 -38
17 -13 30 -22 30 -19 0 3 9 -2 19 -11 29 -26 43 -36 73 -52 15 -8 25 -18 22
-23 -3 -4 1 -8 8 -8 8 0 27 -12 44 -27 17 -16 57 -50 89 -78 32 -27 71 -63 87
-78 16 -15 32 -25 37 -22 5 3 13 1 16 -5 4 -6 41 -10 91 -8 66 1 88 6 100 19
9 10 13 23 9 28 -3 6 -2 11 3 11 7 0 40 64 57 110 10 27 49 106 55 110 4 3 10
15 14 28 4 12 12 22 17 22 6 0 8 4 5 9 -3 5 6 21 19 35 14 15 25 32 25 37 0 6
8 21 18 34 9 12 24 33 32 45 37 55 113 145 121 143 5 -2 9 3 9 11 0 8 9 18 21
21 11 4 18 9 16 12 -7 6 106 119 116 115 4 -1 7 4 7 11 0 8 11 20 25 27 14 7
25 17 25 22 0 4 6 8 14 8 8 0 16 3 18 8 5 12 78 64 78 55 0 -4 5 0 11 10 5 9
15 17 20 17 6 0 30 14 54 30 24 17 48 30 54 30 6 0 11 4 11 9 0 5 10 12 23 16
12 4 24 8 27 10 3 1 32 14 65 29 62 29 106 48 115 51 3 0 20 9 38 18 32 17 32
19 32 90 2 305 0 409 -7 420 -4 6 -17 13 -28 15 -11 1 -27 4 -35 6 -8 2 -23
-1 -32 -5 -9 -5 -19 -6 -22 -1 -4 7 -82 8 -111 2 -5 -1 -12 -1 -15 0 -15 6
-82 4 -86 -2 -3 -5 -10 -6 -15 -2 -13 8 -224 8 -237 0 -6 -3 -13 -3 -15 1 -4
7 -112 9 -142 3 -6 -1 -14 -1 -20 0 -22 4 -137 2 -142 -4 -3 -3 -14 -1 -24 5
-13 7 -19 6 -19 -1 0 -7 -6 -8 -17 -2 -9 5 -29 6 -44 2 -15 -5 -31 -4 -36 1
-5 5 -12 7 -14 4z"/>
<path d="M4512 3506 c-5 -8 -15 -848 -11 -971 0 -11 0 -38 0 -60 0 -22 0 -49
0 -60 0 -27 0 -86 -1 -105 -4 -65 8 -379 14 -389 4 -6 9 -22 11 -34 5 -33 29
-93 44 -111 7 -9 10 -16 7 -16 -9 0 33 -62 49 -72 6 -5 6 -8 0 -8 -10 0 -3 -7
88 -100 70 -71 108 -100 160 -123 15 -6 27 -15 27 -19 0 -4 9 -8 21 -8 13 0
18 -4 13 -12 -4 -7 -4 -10 1 -6 4 4 23 1 41 -7 47 -20 104 -27 209 -28 77 -1
174 7 183 13 1 2 5 3 10 4 46 11 145 56 150 69 2 4 10 7 17 7 8 0 26 11 41 25
15 14 30 25 34 25 21 0 174 173 163 184 -4 3 -2 6 3 6 9 0 30 40 78 151 9 20
18 54 22 75 3 22 8 43 11 48 12 18 10 208 -2 271 -6 36 -10 65 -7 65 2 0 0 6
-5 13 -6 6 -16 35 -23 62 -8 28 -24 66 -36 86 -13 20 -20 40 -17 43 4 3 1 6
-5 6 -7 0 -12 7 -12 15 0 8 -3 15 -8 15 -4 0 -13 14 -21 32 -17 39 -123 146
-182 185 -40 26 -75 53 -103 78 -6 6 -33 26 -61 45 -27 19 -51 37 -53 42 -2 4
-8 8 -14 8 -5 0 -16 6 -23 13 -26 23 -40 34 -70 53 -17 10 -34 22 -40 27 -94
71 -121 93 -123 99 -2 5 -9 8 -16 8 -6 0 -19 8 -28 18 -9 9 -37 32 -62 51 -25
18 -46 37 -46 42 0 5 -6 9 -13 9 -7 0 -19 9 -27 20 -8 11 -19 20 -25 20 -5 0
-26 14 -45 30 -19 16 -41 30 -48 30 -7 0 -10 5 -7 10 3 6 0 10 -7 10 -7 0 -26
11 -41 25 -15 14 -27 22 -27 18 0 -4 -4 -3 -8 3 -11 16 -113 70 -145 76 -15 3
-31 0 -35 -6z"/>
<path d="M3598 1588 c-18 -4 -39 -5 -45 -3 -7 2 -13 1 -13 -3 0 -4 -12 -9 -27
-10 -84 -7 -255 -93 -325 -164 -15 -16 -31 -28 -35 -28 -13 -1 -103 -113 -103
-128 0 -6 -6 -17 -13 -24 -12 -11 -56 -117 -57 -133 0 -3 -1 -6 -1 -7 -1 -2
-2 -14 -3 -28 -1 -14 -5 -31 -9 -37 -5 -7 -6 -13 -3 -13 2 0 1 -13 -4 -30 -5
-18 -5 -32 1 -35 5 -4 5 -14 -1 -25 -7 -13 -7 -21 0 -25 8 -5 8 -11 1 -19 -6
-7 -8 -16 -4 -20 8 -7 11 -25 15 -73 1 -18 5 -33 8 -33 3 0 7 -17 8 -37 2 -21
7 -40 12 -41 6 -2 8 -8 4 -13 -3 -5 0 -9 5 -9 6 0 10 -3 9 -7 -2 -14 15 -47
46 -88 35 -47 96 -117 96 -111 0 2 15 -10 34 -27 50 -46 86 -76 86 -71 0 3 13
-4 29 -15 15 -11 49 -26 74 -33 25 -6 43 -16 40 -21 -3 -6 -2 -7 4 -4 5 3 36
0 68 -8 33 -7 63 -11 67 -9 5 3 8 0 8 -7 0 -8 4 -8 15 1 8 7 15 9 15 4 0 -10
177 -1 225 11 17 4 39 8 50 9 11 0 22 4 25 8 3 4 15 9 25 11 33 6 125 49 125
58 0 5 4 9 10 9 10 0 29 14 83 63 18 15 36 27 41 27 5 0 6 3 3 6 -4 4 2 14 12
23 33 29 90 109 121 171 17 33 28 60 26 60 -3 0 1 21 9 48 10 32 14 88 13 177
-2 107 -6 141 -25 195 -32 90 -45 115 -80 154 -7 8 -11 15 -9 17 2 2 -27 34
-65 71 -38 37 -69 65 -69 62 0 -4 -20 10 -43 29 -24 20 -56 39 -70 43 -15 3
-27 10 -27 15 0 7 -69 32 -95 34 -5 0 -17 5 -25 10 -8 6 -26 11 -40 11 -14 1
-25 3 -25 4 0 2 -16 4 -35 5 -19 2 -35 4 -35 5 0 5 -100 4 -127 -2z"/>
</g>
</svg>
